# xmcd
#
# Track frame offsets:
#	150
#	16335
#	41558
#	57980
#	76206
#	101858
#	120307
#	144602
#	168385
#	190135
#	213684
#	231848
#
# Disc length: 3435 seconds
#
# Revision: 0
# Processed by: cddbd v1.5.2PL0 Copyright (c) Steve Scherf et al.
# Submitted via: audiograbber 1.83.01
#
DISCID=a30d690c
DTITLE=Pee Wee Bluesgang - Back On The Road Again
DYEAR=2010
DGENRE=Blues
TTITLE0=Make My Day
TTITLE1=Fall In Love
TTITLE2=What´s Love About
TTITLE3=Turn It On Like Solomon
TTITLE4=California
TTITLE5=German Rock ´n´ Roll Band
TTITLE6=I´m Crazy About You
TTITLE7=Danger Zone
TTITLE8=River Of Blues
TTITLE9=Should I Call Her
TTITLE10=Bombay Eyes
TTITLE11=Sweet Blue Angel
EXTD=
EXTT0=
EXTT1=
EXTT2=
EXTT3=
EXTT4=
EXTT5=
EXTT6=
EXTT7=
EXTT8=
EXTT9=
EXTT10=
EXTT11=
PLAYORDER=
